<svg width="31" height="80" viewBox="0 0 31 80" fill="none" xmlns="http://www.w3.org/2000/svg">
<rect x="8" y="1" width="10" height="10" rx="2" stroke="white"/>
<path d="M10.5 1V11" stroke="white"/>
<path d="M15.6016 1V11" stroke="white"/>
<path d="M13.0547 1V11" stroke="white"/>
<rect x="1" y="79" width="65.7414" height="24.0517" rx="12" transform="rotate(-90 1 79)" stroke="white"/>
<path d="M21.5955 48.3703V49.2341H17.5078C17.5135 48.9661 17.5506 48.721 17.619 48.4986C17.6874 48.2763 17.7644 48.0881 17.8499 47.9342C17.9411 47.7746 18.0722 47.6149 18.2433 47.4553C18.42 47.29 18.5768 47.156 18.7136 47.0534C18.8561 46.945 19.05 46.8082 19.2951 46.6429C19.3122 46.6315 19.3949 46.5773 19.5431 46.4804C19.6971 46.3778 19.7911 46.3151 19.8253 46.2923C19.8595 46.2638 19.9365 46.2039 20.0562 46.1127C20.1759 46.0158 20.2529 45.9388 20.2871 45.8818C20.327 45.8248 20.3783 45.7478 20.4411 45.6509C20.5095 45.554 20.5551 45.457 20.5779 45.3601C20.6007 45.2575 20.6121 45.1492 20.6121 45.0352C20.6121 44.7216 20.5237 44.4764 20.347 44.2997C20.1759 44.1173 19.9422 44.0261 19.6457 44.0261C19.4747 44.0261 19.3265 44.0546 19.2011 44.1116C19.0756 44.1629 18.9759 44.2313 18.9017 44.3168C18.8333 44.4023 18.7763 44.5135 18.7307 44.6503C18.6851 44.7815 18.6537 44.9069 18.6366 45.0266C18.6252 45.1463 18.6167 45.286 18.611 45.4456H17.6617V45.2917C17.6617 44.6475 17.8413 44.1372 18.2005 43.761C18.5654 43.379 19.0557 43.188 19.6714 43.188C20.2529 43.188 20.7204 43.3533 21.0739 43.684C21.4274 44.009 21.6041 44.4422 21.6041 44.9839C21.6041 45.2005 21.5699 45.4057 21.5015 45.5996C21.4331 45.7934 21.3589 45.9502 21.2791 46.0699C21.205 46.1896 21.0739 46.3293 20.8857 46.489C20.6976 46.6486 20.5579 46.7598 20.4667 46.8225C20.3755 46.8852 20.2073 46.9992 19.9622 47.1645C19.2495 47.6263 18.8219 48.0283 18.6794 48.3703H21.5955Z" fill="white"/>
<path d="M14.0785 43C14.9394 43 15.6378 43.2965 16.1737 43.8894C16.7153 44.4766 16.9861 45.2434 16.9861 46.1898C16.9861 47.1362 16.7153 47.9058 16.1737 48.4988C15.6321 49.086 14.928 49.3796 14.0614 49.3796C13.1891 49.3796 12.4822 49.086 11.9406 48.4988C11.4047 47.9115 11.1367 47.1419 11.1367 46.1898C11.1367 45.2662 11.399 44.5051 11.9235 43.9065C12.4537 43.3022 13.172 43 14.0785 43ZM14.0614 43.8979C13.5027 43.8979 13.0552 44.106 12.7188 44.5222C12.3824 44.9327 12.2142 45.4829 12.2142 46.1727C12.2142 46.8796 12.3796 47.4412 12.7102 47.8574C13.0466 48.2736 13.5027 48.4817 14.0785 48.4817C14.6315 48.4817 15.0734 48.2736 15.404 47.8574C15.7404 47.4355 15.9086 46.8768 15.9086 46.1812C15.9086 45.4857 15.7404 44.9327 15.404 44.5222C15.0734 44.106 14.6258 43.8979 14.0614 43.8979Z" fill="white"/>
<path d="M10.4988 46.9169C10.4417 47.6638 10.1738 48.2624 9.6949 48.7128C9.2217 49.1575 8.60598 49.3798 7.84772 49.3798C6.98685 49.3798 6.29701 49.0891 5.77821 48.5075C5.2594 47.926 5 47.1535 5 46.19C5 45.6085 5.11117 45.0812 5.33352 44.608C5.55586 44.1291 5.88938 43.7442 6.33407 43.4535C6.77876 43.157 7.30041 43.0088 7.89903 43.0088C8.54326 43.0088 9.10483 43.1884 9.58372 43.5475C10.0626 43.901 10.3505 44.4141 10.4474 45.0869H9.38703C9.31292 44.722 9.14189 44.4369 8.87393 44.2317C8.60598 44.0207 8.27531 43.9153 7.88193 43.9153C7.47715 43.9153 7.13223 44.0293 6.84717 44.2573C6.56782 44.4854 6.36828 44.7676 6.24855 45.104C6.13453 45.4346 6.07752 45.7967 6.07752 46.19C6.07752 46.4865 6.11172 46.7658 6.18014 47.0281C6.24855 47.2904 6.35117 47.5326 6.488 47.755C6.62483 47.9716 6.81012 48.1455 7.04386 48.2766C7.28331 48.4078 7.55982 48.4733 7.87338 48.4733C8.77986 48.4733 9.29867 47.9545 9.42979 46.9169H10.4988Z" fill="white"/>
<ellipse cx="23.681" cy="19.681" rx="6.68103" ry="6.68103" fill="black" stroke="white"/>
<path d="M23 16.793L23 20.293" stroke="white" stroke-linecap="round"/>
<path d="M24.9637 19.1864L22.9983 20.365" stroke="white" stroke-linecap="round"/>
</svg>
