<svg width="25" height="16" viewBox="0 0 25 16" fill="none" xmlns="http://www.w3.org/2000/svg">
<path d="M25 5.17767C18.0964 -1.72589 6.90356 -1.72589 0 5.17767L0.735294 5.91296C7.23276 -0.584504 17.7672 -0.584504 24.2647 5.91296L25 5.17767Z" fill="white"/>
<path d="M22.7941 7.38355C17.1088 1.69827 7.89117 1.69827 2.20588 7.38355L2.94118 8.11884C8.22037 2.83965 16.7796 2.83965 22.0588 8.11884L22.7941 7.38355Z" fill="white"/>
<path d="M19.9755 10.2022C15.8469 6.07358 9.15311 6.07358 5.02451 10.2022L5.7598 10.9375C9.48231 7.21496 15.5177 7.21496 19.2402 10.9375L19.9755 10.2022Z" fill="white"/>
<ellipse cx="12.5222" cy="14.0192" rx="1.7331" ry="1.7331" fill="white"/>
</svg>
